<svg width="17" height="18" viewBox="0 0 17 18" fill="none" xmlns="http://www.w3.org/2000/svg">
<path d="M7.46352 10.1638C6.40311 9.10349 5.60373 7.91627 5.07262 6.71183C4.96024 6.45717 5.0264 6.159 5.22307 5.96234L5.96536 5.22101C6.5735 4.6129 6.5735 3.75285 6.04239 3.22177L4.97836 2.1578C4.27052 1.45 3.12311 1.45 2.41527 2.1578L1.82434 2.74869C1.15275 3.42024 0.872694 4.38905 1.05396 5.3497C1.50169 7.71779 2.87749 10.3106 5.09709 12.5301C7.31669 14.7496 9.9097 16.1253 12.2779 16.573C13.2386 16.7543 14.2075 16.4742 14.8791 15.8027L15.4691 15.2127C16.177 14.5049 16.177 13.3575 15.4691 12.6497L14.406 11.5867C13.8749 11.0556 13.0139 11.0556 12.4837 11.5867L11.6653 12.4059C11.4686 12.6026 11.1704 12.6688 10.9157 12.5564C9.71121 12.0244 8.52392 11.2242 7.46352 10.1638Z" fill="white" stroke="white" stroke-width="1.5" stroke-linecap="round" stroke-linejoin="round"/>
</svg>
