<svg width="26" height="26" viewBox="0 0 26 26" fill="none" xmlns="http://www.w3.org/2000/svg">
<path d="M11.3416 14.659C9.64498 12.9625 8.36597 11.0629 7.51619 9.1358C7.33638 8.72834 7.44224 8.25128 7.75692 7.93662L8.94457 6.75049C9.9176 5.77751 9.9176 4.40143 9.06783 3.55171L7.36538 1.84936C6.23283 0.71688 4.39697 0.71688 3.26442 1.84936L2.31894 2.79478C1.2444 3.86926 0.79631 5.41935 1.08634 6.95639C1.8027 10.7453 4.00399 14.8939 7.55535 18.445C11.1067 21.9962 15.2555 24.1973 19.0447 24.9137C20.5818 25.2037 22.132 24.7556 23.2066 23.6811L24.1506 22.7372C25.2831 21.6047 25.2831 19.7689 24.1506 18.6365L22.4496 16.9356C21.5998 16.0858 20.2222 16.0858 19.3739 16.9356L18.0644 18.2464C17.7497 18.5611 17.2726 18.6669 16.8652 18.4871C14.9379 17.6359 13.0383 16.3555 11.3416 14.659Z" fill="#D42630" stroke="#D42630" stroke-width="1.5" stroke-linecap="round" stroke-linejoin="round"/>
</svg>
