<svg width="120" height="120" viewBox="0 0 120 120" fill="none" xmlns="http://www.w3.org/2000/svg">
<path d="M9.11035 34.9712H27.6489C28.6197 34.9712 29.4068 34.1844 29.4068 33.2134C29.4068 32.2424 28.6197 31.4556 27.6489 31.4556H9.11035C8.13957 31.4556 7.35254 32.2424 7.35254 33.2134C7.35254 34.1844 8.13934 34.9712 9.11035 34.9712Z" fill="#D42630"/>
<path d="M27.0132 43.4338H19.6899C18.7192 43.4338 17.9321 44.2206 17.9321 45.1917C17.9321 46.1627 18.7192 46.9495 19.6899 46.9495H27.0132C27.984 46.9495 28.771 46.1627 28.771 45.1917C28.771 44.2206 27.984 43.4338 27.0132 43.4338Z" fill="#D42630"/>
<path d="M1.75781 55.6235H19.6903C20.6611 55.6235 21.4481 54.8367 21.4481 53.8657C21.4481 52.8947 20.6611 52.1079 19.6903 52.1079H1.75781C0.787031 52.1079 0 52.8947 0 53.8657C0 54.8367 0.787031 55.6235 1.75781 55.6235Z" fill="#D42630"/>
<path d="M29.4068 86.7866C29.4068 85.8156 28.6197 85.0288 27.6489 85.0288H9.11035C8.13957 85.0288 7.35254 85.8156 7.35254 86.7866C7.35254 87.7576 8.13957 88.5444 9.11035 88.5444H27.6489C28.6197 88.5444 29.4068 87.7576 29.4068 86.7866Z" fill="#D42630"/>
<path d="M27.0132 73.0508H19.6899C18.7192 73.0508 17.9321 73.8376 17.9321 74.8086C17.9321 75.7796 18.7192 76.5664 19.6899 76.5664H27.0132C27.984 76.5664 28.771 75.7796 28.771 74.8086C28.771 73.8376 27.984 73.0508 27.0132 73.0508Z" fill="#D42630"/>
<path d="M21.4481 66.1343C21.4481 65.1633 20.6611 64.3765 19.6903 64.3765H1.75781C0.787031 64.3765 0 65.1633 0 66.1343C0 67.1053 0.787031 67.8921 1.75781 67.8921H19.6903C20.6611 67.8921 21.4481 67.1053 21.4481 66.1343Z" fill="#D42630"/>
<path d="M74.8896 38.8665C75.8607 38.8665 76.6475 38.0797 76.6475 37.1087V34.4255C76.6475 33.4545 75.8607 32.6677 74.8896 32.6677C73.9186 32.6677 73.1318 33.4545 73.1318 34.4255V37.1087C73.1318 38.0797 73.9186 38.8665 74.8896 38.8665Z" fill="#D42630"/>
<path d="M94.2165 40.6729C93.5298 39.9866 92.417 39.9866 91.7305 40.6729L89.8332 42.5702C89.1467 43.2569 89.1467 44.3697 89.8332 45.0562C90.5202 45.7427 91.6327 45.7424 92.3192 45.0562L94.2165 43.1589C94.9027 42.4724 94.9027 41.3596 94.2165 40.6729Z" fill="#D42630"/>
<path d="M97.7808 58.2422C96.8097 58.2422 96.0229 59.029 96.0229 60C96.0229 60.971 96.8097 61.7578 97.7808 61.7578H100.464C101.435 61.7578 102.221 60.971 102.221 60C102.221 59.029 101.435 58.2422 100.464 58.2422H97.7808Z" fill="#D42630"/>
<path d="M92.3192 74.9436C91.6325 74.2574 90.5197 74.2574 89.8332 74.9436C89.1467 75.6304 89.1467 76.7432 89.8332 77.4297L91.7305 79.3269C92.4174 80.0134 93.53 80.0132 94.2165 79.3269C94.903 78.6402 94.903 77.5274 94.2165 76.8409L92.3192 74.9436Z" fill="#D42630"/>
<path d="M73.1318 82.8914V85.5742C73.1318 86.5453 73.9186 87.3321 74.8896 87.3321C75.8607 87.3321 76.6475 86.5453 76.6475 85.5742V82.8914C76.6475 81.9203 75.8607 81.1335 74.8896 81.1335C73.9186 81.1335 73.1318 81.9206 73.1318 82.8914Z" fill="#D42630"/>
<path d="M57.46 74.9436L55.5627 76.8409C54.8762 77.5276 54.8762 78.6404 55.5627 79.3269C56.2494 80.0134 57.3622 80.0132 58.0485 79.3269L59.9458 77.4297C60.6322 76.7429 60.6322 75.6301 59.9458 74.9436C59.2595 74.2574 58.1465 74.2574 57.46 74.9436Z" fill="#D42630"/>
<path d="M49.3149 58.2422C48.3442 58.2422 47.5571 59.029 47.5571 60C47.5571 60.971 48.3442 61.7578 49.3149 61.7578H51.9981C52.9688 61.7578 53.7559 60.971 53.7559 60C53.7559 59.029 52.9688 58.2422 51.9981 58.2422H49.3149Z" fill="#D42630"/>
<path d="M59.9458 42.5702L58.0485 40.6729C57.362 39.9866 56.249 39.9866 55.5627 40.6729C54.8762 41.3596 54.8762 42.4724 55.5627 43.1589L57.46 45.0562C58.1467 45.7427 59.2595 45.7424 59.9458 45.0562C60.6322 44.3697 60.6322 43.2569 59.9458 42.5702Z" fill="#D42630"/>
<path d="M84.342 60.0001C84.342 59.0291 83.5552 58.2423 82.5842 58.2423H76.6475V45.1914C76.6475 44.2204 75.8607 43.4336 74.8896 43.4336C73.9186 43.4336 73.1318 44.2204 73.1318 45.1914V60.0001C73.1318 60.9712 73.9186 61.758 74.8896 61.758H82.5842C83.555 61.758 84.342 60.9712 84.342 60.0001Z" fill="#D42630"/>
<path d="M108.221 59.71C109.19 59.6512 109.927 58.818 109.869 57.8491C108.75 39.4031 93.3857 24.9536 74.8893 24.9536C55.5647 24.9536 39.8428 40.6755 39.8428 60.0004C39.8428 79.3251 55.5647 95.047 74.8893 95.047C92.2024 95.047 106.975 82.3621 109.545 65.2445C109.689 64.2845 109.028 63.3895 108.068 63.2453C107.11 63.1017 106.213 63.7624 106.068 64.7228C103.76 80.1011 90.4811 91.5316 74.8893 91.5316C57.5032 91.5316 43.3584 77.3868 43.3584 60.0006C43.3584 42.6145 57.5032 28.4695 74.8893 28.4695C91.5302 28.4695 105.353 41.4681 106.359 58.0624C106.418 59.0308 107.25 59.7663 108.221 59.71Z" fill="#D42630"/>
<path d="M74.8895 14.8896C68.7064 14.8896 62.6485 16.1724 57.0727 18.5712H26.0581C25.0873 18.5712 24.3003 19.358 24.3003 20.329C24.3003 21.3 25.0873 22.0868 26.0581 22.0868H50.4596C47.1603 24.2103 44.123 26.7715 41.4451 29.7284C40.7935 30.4477 40.8483 31.5593 41.5679 32.2111C42.2876 32.8629 43.3988 32.8079 44.0508 32.0883C51.9263 23.3925 63.1667 18.4053 74.8895 18.4053C97.8249 18.4053 116.484 37.0646 116.484 60C116.484 82.9353 97.8252 101.595 74.8895 101.595C51.954 101.595 33.2947 82.9355 33.2947 60C33.2947 51.9685 35.589 44.1732 39.9291 37.4564C40.456 36.6411 40.2221 35.5531 39.4067 35.0262C38.5913 34.4996 37.5033 34.733 36.9762 35.5486C32.2676 42.8349 29.779 51.29 29.779 60C29.779 75.8827 38.0305 89.873 50.4708 97.9132H26.0583C25.0876 97.9132 24.3005 98.7 24.3005 99.6711C24.3005 100.642 25.0876 101.429 26.0583 101.429H57.0486C62.5236 103.796 68.5557 105.11 74.8897 105.11C99.7634 105.11 120 84.874 120 60C120 35.1261 99.7634 14.8896 74.8895 14.8896Z" fill="#D42630"/>
</svg>
