<svg width="120" height="120" viewBox="0 0 120 120" fill="none" xmlns="http://www.w3.org/2000/svg">
<path d="M102 10C102 4.40039 97.5996 0 92 0H18C12.4004 0 8 4.40039 8 10V26H24V110C24 115.6 28.4004 120 34 120H102C107.6 120 112 115.6 112 110V100H102V10ZM24 22H12V10C12 6.59961 14.5996 4 18 4C21.4004 4 24 6.59961 24 10V22ZM28 110V10C28 7.7998 27.2002 5.7998 26 4H92C95.4004 4 98 6.59961 98 10V100H40V110C40 113.4 37.4004 116 34 116C30.5996 116 28 113.4 28 110ZM108 104V110C108 113.4 105.4 116 102 116H42C43.4004 114.2 44 112.2 44 110V104H108Z" fill="#D42630"/>
<path d="M78 64H94V68H78V64Z" fill="#D42630"/>
<path d="M32 64H74V68H32V64Z" fill="#D42630"/>
<path d="M54 72H94V76H54V72Z" fill="#D42630"/>
<path d="M32 72H50V76H32V72Z" fill="#D42630"/>
<path d="M68 88H94V92H68V88Z" fill="#D42630"/>
<path d="M32 88H64V92H32V88Z" fill="#D42630"/>
<path d="M59.5996 40.7998L62 42.4004L64.4004 40.7998C71.5996 36 76 27.7998 76 19.2002V12.5996L62 8L48 12.5996V19.2002C48 27.7998 52.4004 36 59.5996 40.7998ZM52 15.4004L62 12L72 15.4004V19.2002C72 26.5996 68.4004 33.4004 62.2002 37.5996H62L61.7998 37.4004C55.5996 33.4004 52 26.4004 52 19V15.4004Z" fill="#D42630"/>
<path d="M68 20.2002L64 19.7998C63.5996 23.2002 61.7998 26.4004 59 28.4004L61.2002 31.7998C65 29 67.5996 24.7998 68 20.2002Z" fill="#D42630"/>
<path d="M44 80H94V84H44V80Z" fill="#D42630"/>
<path d="M32 80H40V84H32V80Z" fill="#D42630"/>
<path d="M54 56H94V60H54V56Z" fill="#D42630"/>
<path d="M32 56H50V60H32V56Z" fill="#D42630"/>
<path d="M48 46H76V50H48V46Z" fill="#D42630"/>
</svg>
