<svg width="120" height="120" viewBox="0 0 120 120" fill="none" xmlns="http://www.w3.org/2000/svg">
<g clip-path="url(#clip0)">
<path d="M114 0.26001H6C2.68629 0.26001 0 2.9463 0 6.26001V58.26C0 61.5737 2.68629 64.26 6 64.26H114C117.314 64.26 120 61.5737 120 58.26V6.26001C120 2.9463 117.314 0.26001 114 0.26001ZM116 58.26C116 59.3646 115.105 60.26 114 60.26H6C4.89543 60.26 4 59.3646 4 58.26V6.26001C4 5.15544 4.89543 4.26001 6 4.26001H114C115.105 4.26001 116 5.15544 116 6.26001V58.26Z" fill="#D42630"/>
<path d="M110 18.26C105.582 18.26 102 14.6783 102 10.26C102 9.15544 101.105 8.26001 100 8.26001H20C18.8954 8.26001 18 9.15544 18 10.26C18 12.3817 17.1571 14.4166 15.6569 15.9169C14.1566 17.4172 12.1217 18.26 10 18.26C8.89543 18.26 8 19.1554 8 20.26V44.26C8 45.3646 8.89543 46.26 10 46.26C14.4183 46.26 18 49.8417 18 54.26C18 55.3646 18.8954 56.26 20 56.26H100C101.105 56.26 102 55.3646 102 54.26C102 49.8417 105.582 46.26 110 46.26C111.105 46.26 112 45.3646 112 44.26V20.26C112 19.1554 111.105 18.26 110 18.26ZM21.84 52.26C20.9908 47.2189 17.0411 43.2692 12 42.42V22C17.0351 21.1534 20.9831 17.2134 21.84 12.18H46.76C40.0565 16.6266 36.0265 24.1358 36.0265 32.18C36.0265 40.2242 40.0565 47.7334 46.76 52.18L21.84 52.26ZM60 12.26C71.0457 12.26 80 21.2143 80 32.26C80 43.3057 71.0457 52.26 60 52.26C48.9543 52.26 40 43.3057 40 32.26C40 21.2143 48.9543 12.26 60 12.26ZM108 42.42C102.959 43.2692 99.0092 47.2189 98.16 52.26H73.24C79.9435 47.8134 83.9735 40.3042 83.9735 32.26C83.9735 24.2158 79.9435 16.7066 73.24 12.26H98.16C99.0475 17.2623 102.989 21.1637 108 22V42.42Z" fill="#D42630"/>
<path d="M60 42.26C57.7909 42.26 56 40.4691 56 38.26C56 37.1554 55.1046 36.26 54 36.26C52.8954 36.26 52 37.1554 52 38.26C52.0027 41.9058 54.47 45.0886 58 46V48.3C58 49.4046 58.8954 50.3 60 50.3C61.1046 50.3 62 49.4046 62 48.3V46C65.8171 44.9274 68.2727 41.2206 67.7716 37.2874C67.2706 33.3542 63.9641 30.3814 60 30.3C57.7909 30.3 56 28.5091 56 26.3C56 24.0909 57.7909 22.3 60 22.3C62.2091 22.3 64 24.0909 64 26.3C64 27.4046 64.8954 28.3 66 28.3C67.1046 28.3 68 27.4046 68 26.3C67.9882 22.6617 65.5228 19.4896 62 18.58V16.26C62 15.1554 61.1046 14.26 60 14.26C58.8954 14.26 58 15.1554 58 16.26V18.54C54.148 19.5857 51.6561 23.3107 52.1599 27.2703C52.6636 31.2298 56.0089 34.2122 60 34.26C62.2091 34.26 64 36.0509 64 38.26C64 40.4691 62.2091 42.26 60 42.26Z" fill="#D42630"/>
<path d="M37 86.26C38.6569 86.26 40 84.9169 40 83.26V71.26C40 69.6032 38.6569 68.26 37 68.26H19C17.3431 68.26 16 69.6032 16 71.26V83.26C16 84.9169 17.3431 86.26 19 86.26H37ZM20 72.26H36V82.26H20V72.26Z" fill="#D42630"/>
<path d="M69 94.26C70.6568 94.26 72 92.9169 72 91.26V71.26C72 69.6032 70.6568 68.26 69 68.26H51C49.3431 68.26 48 69.6032 48 71.26V91.26C48 92.9169 49.3431 94.26 51 94.26H69ZM52 72.26H68V90.26H52V72.26Z" fill="#D42630"/>
<path d="M101 68.26H82.9998C81.343 68.26 79.9998 69.6032 79.9998 71.26V98.26H78.2198C77.0477 98.2731 75.9907 98.9677 75.5134 100.038C75.0361 101.109 75.2261 102.359 75.9998 103.24L89.7798 118.74C90.3491 119.379 91.1641 119.744 92.0198 119.744C92.8756 119.744 93.6906 119.379 94.2598 118.74L108 103.24C108.776 102.357 108.964 101.102 108.482 100.029C108 98.9571 106.936 98.2654 105.76 98.26H104V71.26C104 69.6032 102.657 68.26 101 68.26ZM91.9998 115.24L80.4598 102.26H80.9998C82.6567 102.26 83.9998 100.917 83.9998 99.26V72.26H99.9998V99.26C99.9998 100.917 101.343 102.26 103 102.26H103.54L91.9998 115.24Z" fill="#D42630"/>
</g>
<defs>
<clipPath id="clip0">
<rect width="120" height="120" fill="white"/>
</clipPath>
</defs>
</svg>
