<svg width="120" height="120" viewBox="0 0 120 120" fill="none" xmlns="http://www.w3.org/2000/svg">
<g clip-path="url(#clip0)">
<path d="M112 0H72C67.5817 0 64 3.58172 64 8V32C64 36.4183 67.5817 40 72 40H73.234L72.016 49.752C71.9134 50.5751 72.3295 51.3761 73.062 51.7654C73.7944 52.1548 74.6912 52.0515 75.316 51.506L88.472 40H112C116.418 40 120 36.4183 120 32V8C120 3.58172 116.418 0 112 0ZM116 32C116 34.2091 114.209 36 112 36H87.72C87.236 36 86.7684 36.1755 86.404 36.494L76.636 45.038L77.484 38.248C77.5551 37.6789 77.3785 37.1066 76.999 36.6766C76.6194 36.2466 76.0736 36.0002 75.5 36H72C69.7909 36 68 34.2091 68 32V8C68 5.79086 69.7909 4 72 4H112C114.209 4 116 5.79086 116 8V32Z" fill="#D42630"/>
<path d="M78 14C74.6863 14 72 16.6863 72 20C72 23.3137 74.6863 26 78 26C81.3137 26 84 23.3137 84 20C84 16.6863 81.3137 14 78 14ZM78 22C76.8954 22 76 21.1046 76 20C76 18.8954 76.8954 18 78 18C79.1046 18 80 18.8954 80 20C80 21.1046 79.1046 22 78 22Z" fill="#D42630"/>
<path d="M92 14C88.6863 14 86 16.6863 86 20C86 23.3137 88.6863 26 92 26C95.3137 26 98 23.3137 98 20C98 16.6863 95.3137 14 92 14ZM92 22C90.8954 22 90 21.1046 90 20C90 18.8954 90.8954 18 92 18C93.1046 18 94 18.8954 94 20C94 21.1046 93.1046 22 92 22Z" fill="#D42630"/>
<path d="M106 14C102.686 14 100 16.6863 100 20C100 23.3137 102.686 26 106 26C109.314 26 112 23.3137 112 20C112 16.6863 109.314 14 106 14ZM106 22C104.895 22 104 21.1046 104 20C104 18.8954 104.895 18 106 18C107.105 18 108 18.8954 108 20C108 21.1046 107.105 22 106 22Z" fill="#D42630"/>
<path d="M112 70.0002H94.472L81.316 58.4942C80.6912 57.9486 79.7944 57.8454 79.062 58.2347C78.3295 58.624 77.9134 59.4251 78.016 60.2482L79.234 70.0002H78C73.5817 70.0002 70 73.5819 70 78.0002V96.0002C70 100.418 73.5817 104 78 104H112C116.418 104 120 100.418 120 96.0002V78.0002C120 73.5819 116.418 70.0002 112 70.0002ZM116 96.0002C116 98.2093 114.209 100 112 100H78C75.7909 100 74 98.2093 74 96.0002V78.0002C74 75.791 75.7909 74.0002 78 74.0002H81.5C82.0736 74 82.6194 73.7536 82.999 73.3236C83.3785 72.8936 83.5551 72.3213 83.484 71.7522L82.636 64.9622L92.4 73.5062C92.7655 73.8255 93.2346 74.0011 93.72 74.0002H112C114.209 74.0002 116 75.791 116 78.0002V96.0002Z" fill="#D42630"/>
<path d="M8 70.0001H13.248C14.5878 72.3112 16.3025 74.3834 18.322 76.1321C8.24617 81.7905 2.0064 92.4442 2 104V114C2 117.314 4.68629 120 8 120H60C63.3137 120 66 117.314 66 114V104C65.9778 92.4485 59.7475 81.8007 49.688 76.1221C51.7027 74.3753 53.4139 72.3066 54.752 70.0001H60C64.4183 70.0001 68 66.4184 68 62.0001V54.0001C67.9918 51.1845 66.4997 48.5818 64.074 47.1521C59.5153 34.4632 47.483 26.0007 34 26.0007C20.517 26.0007 8.48473 34.4632 3.926 47.1521C1.50035 48.5818 0.0082146 51.1845 0 54.0001V62.0001C0 66.4184 3.58172 70.0001 8 70.0001ZM8 66.0001C5.79086 66.0001 4 64.2092 4 62.0001V54.0001C4 51.7909 5.79086 50.0001 8 50.0001H11.4C9.53341 55.1701 9.53341 60.8301 11.4 66.0001H8ZM14 58.0001C13.9973 50.1374 18.6018 43.0027 25.7675 39.7662C32.9331 36.5297 41.3303 37.7921 47.2277 42.9923C53.1251 48.1925 55.4283 56.3657 53.114 63.8801C49.39 65.0939 45.5112 65.7674 41.596 65.8801C40.7163 63.551 38.4897 62.0071 36 62.0001H32C28.6863 62.0001 26 64.6864 26 68.0001C26 71.3138 28.6863 74.0001 32 74.0001H36C38.5776 73.9922 40.8605 72.3346 41.666 69.8861C44.767 69.7618 47.8506 69.3602 50.88 68.6861C46.1306 76.2171 36.9712 79.6968 28.4195 77.2189C19.8677 74.741 13.9875 66.9036 14 58.0001ZM38 68.0001C38 69.1047 37.1046 70.0001 36 70.0001H32C30.8954 70.0001 30 69.1047 30 68.0001C30 66.8955 30.8954 66.0001 32 66.0001H36C37.1046 66.0001 38 66.8955 38 68.0001ZM53.788 84.2161C59.0642 89.445 62.0224 96.5718 62 104V114C62 115.105 61.1046 116 60 116H50V104C50 102.896 49.1046 102 48 102C46.8954 102 46 102.896 46 104V116H22V104C22 102.896 21.1046 102 20 102C18.8954 102 18 102.896 18 104V116H8C6.89543 116 6 115.105 6 114V104C6.00921 93.204 12.2244 83.375 21.974 78.7381C29.3995 83.0841 38.5925 83.0841 46.018 78.7381C48.9076 80.0971 51.5372 81.951 53.788 84.2161ZM64 62.0001C64 64.2092 62.2091 66.0001 60 66.0001H56.6C58.4666 60.8301 58.4666 55.1701 56.6 50.0001H60C62.2091 50.0001 64 51.7909 64 54.0001V62.0001ZM34 30.0001C44.809 29.9951 54.6506 36.227 59.268 46.0001H54.752C50.479 38.5763 42.5657 34.0005 34 34.0005C25.4343 34.0005 17.521 38.5763 13.248 46.0001H8.732C13.3494 36.227 23.191 29.9951 34 30.0001Z" fill="#D42630"/>
<path d="M80 84H86C87.1046 84 88 83.1046 88 82C88 80.8954 87.1046 80 86 80H80C78.8954 80 78 80.8954 78 82C78 83.1046 78.8954 84 80 84Z" fill="#D42630"/>
<path d="M110 80H94C92.8954 80 92 80.8954 92 82C92 83.1046 92.8954 84 94 84H110C111.105 84 112 83.1046 112 82C112 80.8954 111.105 80 110 80Z" fill="#D42630"/>
<path d="M110 90H104C102.895 90 102 90.8954 102 92C102 93.1046 102.895 94 104 94H110C111.105 94 112 93.1046 112 92C112 90.8954 111.105 90 110 90Z" fill="#D42630"/>
<path d="M96 90H80C78.8954 90 78 90.8954 78 92C78 93.1046 78.8954 94 80 94H96C97.1046 94 98 93.1046 98 92C98 90.8954 97.1046 90 96 90Z" fill="#D42630"/>
</g>
<defs>
<clipPath id="clip0">
<rect width="120" height="120" fill="white"/>
</clipPath>
</defs>
</svg>
