<svg width="120" height="120" viewBox="0 0 120 120" fill="none" xmlns="http://www.w3.org/2000/svg">
<g clip-path="url(#clip0)">
<path d="M103.33 15.1428L60.8305 0.142909C60.2933 -0.0476363 59.7073 -0.0476363 59.1704 0.142909L16.6709 15.1428C15.6699 15.4967 15.001 16.4417 15.001 17.5013V47.501C15.001 86.3239 20.7579 100.513 58.8727 119.732C59.2292 119.91 59.615 120 60.0005 120C60.3863 120 60.7721 119.91 61.1286 119.732C99.2434 100.513 105 86.3239 105 47.501V17.5013C105 16.4417 104.331 15.4969 103.33 15.1428ZM99.9997 47.501C99.9997 84.6856 95.2586 96.7216 60.0001 114.698C24.7417 96.7216 20.0006 84.6856 20.0006 47.501V19.2712L60.0003 5.15263L100 19.2712V47.501H99.9997Z" fill="#D42630"/>
<path d="M34.268 50.7333C33.2914 49.7567 31.7094 49.7567 30.733 50.7333C29.7563 51.7099 29.7563 53.2919 30.733 54.2683L50.7327 74.2681C51.2209 74.7563 51.8607 75.0005 52.5003 75.0005C53.1399 75.0005 53.7795 74.7563 54.268 74.2681L89.2675 39.2685C90.2442 38.2919 90.2442 36.7098 89.2675 35.7334C88.2909 34.7568 86.7089 34.7568 85.7325 35.7334L52.5003 68.9654L34.268 50.7333Z" fill="#D42630"/>
</g>
<defs>
<clipPath id="clip0">
<rect width="120" height="120" fill="white" transform="translate(0 0.000244141)"/>
</clipPath>
</defs>
</svg>
