<svg width="120" height="120" viewBox="0 0 120 120" fill="none" xmlns="http://www.w3.org/2000/svg">
<path d="M30 76.8752V89.805C30.0008 91.9334 30.512 94.0306 31.4907 95.9206C32.4695 97.8106 33.8872 99.4384 35.625 100.667V116.25H39.375V102.529C40.6525 102.925 41.9826 103.126 43.3202 103.125C43.6756 103.125 44.0301 103.11 44.3832 103.081C50.0993 106.786 56.7665 108.755 63.5781 108.75H76.875C78.145 108.75 79.4083 108.565 80.625 108.201V116.25H84.375V106.387C86.1105 105.179 87.5284 103.57 88.5079 101.696C89.4873 99.8224 89.9992 97.7396 90 95.6252V76.8752C89.9966 73.8926 88.8103 71.0331 86.7012 68.924C84.5922 66.815 81.7327 65.6286 78.75 65.6252H68.5899C69.1085 64.4431 69.3759 63.1661 69.375 61.8752V53.6591L70.1668 53.2632C71.2451 52.7241 72.1097 51.8367 72.6206 50.7448C73.1315 49.6529 73.2588 48.4205 72.9818 47.2472C72.7048 46.0739 72.0398 45.0285 71.0945 44.2804C70.1492 43.5323 68.979 43.1252 67.7735 43.1252H60C57.5145 43.128 55.1315 44.1167 53.374 45.8742C51.6164 47.6318 50.6278 50.0147 50.625 52.5002V61.8752C50.6242 63.1661 50.8915 64.4431 51.4101 65.6252H41.25C38.2673 65.6286 35.4078 66.815 33.2988 68.924C31.1897 71.0331 30.0034 73.8926 30 76.8752ZM33.75 89.805V76.8752C33.7522 74.8868 34.5431 72.9805 35.9492 71.5744C37.3552 70.1684 39.2616 69.3775 41.25 69.3752H54.375V69.3701C54.9572 69.8078 55.5884 70.1761 56.2559 70.4678L51.1742 75.5494L53.8258 78.201L55.7364 76.2905L56.1603 77.1383L54.7129 84.3752H46.875V78.7502H43.125V86.2502C43.125 86.4965 43.1735 86.7403 43.2677 86.9678C43.3619 87.1953 43.5 87.402 43.6742 87.5761C43.8483 87.7502 44.055 87.8883 44.2825 87.9825C44.5099 88.0768 44.7538 88.1253 45 88.1252H61.875V94.2302L46.0701 98.9716C44.6411 99.4003 43.1317 99.489 41.6623 99.2306C40.193 98.9721 38.8044 98.3737 37.6074 97.4832C36.4104 96.5926 35.4383 95.4345 34.7685 94.1013C34.0988 92.7682 33.75 91.2969 33.75 89.805ZM65.625 88.1252H69.375C70.3692 88.1264 71.3224 88.5218 72.0254 89.2248C72.7284 89.9279 73.1239 90.881 73.125 91.8752V93.7502H65.625V88.1252ZM59.6621 78.7502H60.3379L61.4629 84.3752H58.5372L59.6621 78.7502ZM60.7162 75.0002H59.2838L58.5314 73.4955L60 72.027L61.4686 73.4955L60.7162 75.0002ZM60 67.5002C58.5087 67.4986 57.0789 66.9054 56.0244 65.8509C54.9698 64.7963 54.3767 63.3666 54.375 61.8752V58.9018L58.9016 54.3752H65.625V61.8752C65.6233 63.3666 65.0302 64.7963 63.9756 65.8509C62.9211 66.9054 61.4913 67.4986 60 67.5002ZM86.25 76.8752V95.6252C86.2472 98.1108 85.2586 100.494 83.501 102.251C81.7435 104.009 79.3605 104.997 76.875 105H63.5781C58.7719 105.003 54.0288 103.907 49.7117 101.794L64.0252 97.5002H75C75.2462 97.5003 75.49 97.4518 75.7175 97.3575C75.945 97.2633 76.1517 97.1252 76.3258 96.9511C76.5 96.777 76.6381 96.5703 76.7323 96.3428C76.8265 96.1153 76.875 95.8715 76.875 95.6252V78.7502H73.125V85.3842C71.9861 84.7224 70.6922 84.3742 69.375 84.3752H65.2871L63.8397 77.1383L64.2636 76.2905L66.1742 78.201L68.8258 75.5494L63.7441 70.4678C64.4116 70.1761 65.0428 69.8078 65.625 69.3701V69.3752H78.75C80.7384 69.3775 82.6448 70.1684 84.0508 71.5744C85.4569 72.9805 86.2478 74.8868 86.25 76.8752ZM60 46.8752H67.7735C68.1343 46.8752 68.4845 46.997 68.7674 47.2209C69.0502 47.4448 69.2493 47.7576 69.3321 48.1087C69.415 48.4598 69.377 48.8286 69.2241 49.1554C69.0712 49.4822 68.8125 49.7477 68.4898 49.9091L67.0575 50.6252H58.125C57.8788 50.6252 57.635 50.6737 57.4075 50.768C57.18 50.8622 56.9733 51.0003 56.7992 51.1744L54.375 53.5986V52.5002C54.3767 51.0089 54.9698 49.5791 56.0244 48.5246C57.0789 47.4701 58.5087 46.8769 60 46.8752Z" fill="#D42630"/>
<path d="M63.75 16.8752V39.3752H67.5V18.7502H71.25C71.6208 18.7502 71.9834 18.6402 72.2917 18.4342C72.6001 18.2282 72.8404 17.9354 72.9823 17.5927C73.1242 17.2501 73.1613 16.8731 73.089 16.5094C73.0166 16.1457 72.838 15.8116 72.5758 15.5494L61.3258 4.29939C60.9742 3.94778 60.4973 3.75024 60 3.75024C59.5027 3.75024 59.0258 3.94778 58.6742 4.29939L47.4242 15.5494C47.162 15.8116 46.9834 16.1457 46.911 16.5094C46.8387 16.8731 46.8758 17.2501 47.0177 17.5927C47.1596 17.9354 47.4 18.2282 47.7083 18.4342C48.0167 18.6402 48.3792 18.7502 48.75 18.7502H52.5V39.3752H56.25V16.8752C56.25 16.629 56.2015 16.3851 56.1073 16.1577C56.0131 15.9302 55.875 15.7235 55.7008 15.5493C55.5267 15.3752 55.32 15.2371 55.0926 15.1429C54.8651 15.0487 54.6212 15.0002 54.375 15.0002H53.2766L60 8.27679L66.7234 15.0002H65.625C65.3788 15.0002 65.135 15.0487 64.9075 15.1429C64.68 15.2371 64.4733 15.3752 64.2992 15.5493C64.1251 15.7235 63.9869 15.9302 63.8927 16.1577C63.7985 16.3851 63.75 16.629 63.75 16.8752Z" fill="#D42630"/>
<path d="M28.125 73.1252V69.3752H24.375C21.3924 69.3718 18.5328 68.1855 16.4238 66.0764C14.3147 63.9674 13.1284 61.1078 13.125 58.1252V37.5002C13.125 37.254 13.0765 37.0101 12.9823 36.7827C12.8881 36.5552 12.75 36.3485 12.5759 36.1744C12.4017 36.0002 12.195 35.8621 11.9676 35.7679C11.7401 35.6737 11.4962 35.6252 11.25 35.6252H10.1517L16.875 28.9019L23.5983 35.6252H22.5C22.2538 35.6252 22.01 35.6737 21.7825 35.7679C21.555 35.8621 21.3483 36.0002 21.1742 36.1744C21.0001 36.3485 20.8619 36.5552 20.7677 36.7827C20.6735 37.0101 20.625 37.254 20.625 37.5002V56.2502C20.6267 57.7415 21.2199 59.1713 22.2744 60.2258C23.3289 61.2803 24.7587 61.8735 26.25 61.8752H46.875V58.1252H26.25C25.7529 58.1246 25.2763 57.9269 24.9248 57.5754C24.5733 57.2239 24.3756 56.7473 24.375 56.2502V39.3752H28.125C28.4959 39.3752 28.8584 39.2652 29.1667 39.0592C29.4751 38.8532 29.7154 38.5604 29.8573 38.2177C29.9992 37.8751 30.0363 37.4981 29.964 37.1344C29.8916 36.7707 29.713 36.4366 29.4508 36.1744L18.2008 24.9244C17.8492 24.5728 17.3723 24.3752 16.875 24.3752C16.3777 24.3752 15.9008 24.5728 15.5492 24.9244L4.29921 36.1744C4.03698 36.4366 3.85839 36.7707 3.78604 37.1344C3.71368 37.4981 3.75081 37.8751 3.89272 38.2177C4.03463 38.5604 4.27496 38.8532 4.58331 39.0592C4.89165 39.2652 5.25417 39.3752 5.62501 39.3752H9.37501V58.1252C9.37952 62.1021 10.9613 65.9148 13.7734 68.7268C16.5855 71.5389 20.3981 73.1207 24.375 73.1252H28.125Z" fill="#D42630"/>
<path d="M104.451 24.9244C104.099 24.5728 103.622 24.3752 103.125 24.3752C102.628 24.3752 102.151 24.5728 101.799 24.9244L90.5492 36.1744C90.287 36.4366 90.1084 36.7707 90.036 37.1344C89.9637 37.4981 90.0008 37.8751 90.1427 38.2177C90.2846 38.5604 90.5249 38.8532 90.8333 39.0592C91.1416 39.2652 91.5042 39.3752 91.875 39.3752H95.625V56.2502C95.6244 56.7473 95.4267 57.2239 95.0752 57.5754C94.7237 57.9269 94.2471 58.1246 93.75 58.1252H73.125V61.8752H93.75C95.2413 61.8735 96.6711 61.2803 97.7256 60.2258C98.7801 59.1713 99.3733 57.7415 99.375 56.2502V37.5002C99.375 37.254 99.3265 37.0101 99.2323 36.7827C99.1381 36.5552 98.9999 36.3485 98.8258 36.1744C98.6517 36.0002 98.445 35.8621 98.2175 35.7679C97.99 35.6737 97.7462 35.6252 97.5 35.6252H96.4017L103.125 28.9019L109.848 35.6252H108.75C108.504 35.6252 108.26 35.6737 108.032 35.7679C107.805 35.8621 107.598 36.0002 107.424 36.1744C107.25 36.3485 107.112 36.5552 107.018 36.7827C106.923 37.0101 106.875 37.254 106.875 37.5002V58.1252C106.872 61.1078 105.685 63.9674 103.576 66.0764C101.467 68.1855 98.6076 69.3718 95.625 69.3752H91.875V73.1252H95.625C99.6019 73.1207 103.415 71.5389 106.227 68.7268C109.039 65.9148 110.62 62.1021 110.625 58.1252V39.3752H114.375C114.746 39.3752 115.108 39.2652 115.417 39.0592C115.725 38.8532 115.965 38.5604 116.107 38.2177C116.249 37.8751 116.286 37.4981 116.214 37.1344C116.142 36.7707 115.963 36.4366 115.701 36.1744L104.451 24.9244Z" fill="#D42630"/>
</svg>
