<svg width="121" height="121" viewBox="0 0 121 121" fill="none" xmlns="http://www.w3.org/2000/svg">
<path d="M119.29 76.8302L91.29 68.8302C90.9369 68.7302 90.5631 68.7302 90.21 68.8302L62.21 76.8302C61.7908 76.9478 61.4215 77.1988 61.158 77.5454C60.8945 77.8919 60.7512 78.3149 60.75 78.7502V86.7502C60.7521 87.0603 60.8254 87.3658 60.9641 87.6432C61.1027 87.9206 61.3032 88.1624 61.55 88.3502C61.7939 88.5377 62.0789 88.6645 62.3814 88.7201C62.6839 88.7758 62.9954 88.7587 63.29 88.6702L66.75 87.6902V118.75C66.75 119.281 66.9607 119.789 67.3358 120.164C67.7109 120.54 68.2196 120.75 68.75 120.75H112.75C113.28 120.75 113.789 120.54 114.164 120.164C114.539 119.789 114.75 119.281 114.75 118.75V87.6902L118.21 88.6702C118.384 88.7261 118.567 88.7531 118.75 88.7502C119.28 88.7502 119.789 88.5395 120.164 88.1644C120.539 87.7894 120.75 87.2807 120.75 86.7502V78.7502C120.749 78.3149 120.606 77.8919 120.342 77.5454C120.079 77.1988 119.709 76.9478 119.29 76.8302ZM94.75 116.75H86.75V100.75H94.75V116.75ZM110.75 116.75H98.75V98.7502C98.75 98.2198 98.5393 97.7111 98.1642 97.336C97.7891 96.9609 97.2804 96.7502 96.75 96.7502H84.75C84.2196 96.7502 83.7109 96.9609 83.3358 97.336C82.9607 97.7111 82.75 98.2198 82.75 98.7502V116.75H70.75V86.5502L90.75 80.8302L110.75 86.5502V116.75ZM116.75 84.0902L91.29 76.8302C90.9379 76.7235 90.5621 76.7235 90.21 76.8302L64.75 84.0902V80.2502L90.75 72.8302L116.75 80.2502V84.0902Z" fill="#D42630"/>
<path d="M38.75 0.750244H2.75C2.21957 0.750244 1.71086 0.960958 1.33579 1.33603C0.960714 1.7111 0.75 2.21981 0.75 2.75025V38.7503C0.75 39.2807 0.960714 39.7894 1.33579 40.1645C1.71086 40.5396 2.21957 40.7503 2.75 40.7503H38.75C39.2804 40.7503 39.7891 40.5396 40.1642 40.1645C40.5393 39.7894 40.75 39.2807 40.75 38.7503V2.75025C40.75 2.21981 40.5393 1.7111 40.1642 1.33603C39.7891 0.960958 39.2804 0.750244 38.75 0.750244ZM18.75 4.75025H22.75V11.1902L18.75 12.1903V4.75025ZM4.75 4.75025H14.75V6.75025H4.75V4.75025ZM36.75 36.7503H4.75V10.7503H14.75V14.7503C14.7473 15.0136 14.7972 15.2749 14.8968 15.5188C14.9964 15.7626 15.1436 15.9842 15.3298 16.1704C15.5161 16.3567 15.7376 16.5039 15.9815 16.6035C16.2253 16.703 16.4866 16.7529 16.75 16.7503C16.9119 16.75 17.0731 16.7299 17.23 16.6903L25.23 14.6903C25.6636 14.5831 26.0488 14.3338 26.3243 13.9822C26.5998 13.6306 26.7497 13.1969 26.75 12.7503V10.7503H36.75V36.7503ZM36.75 6.75025H26.75V4.75025H36.75V6.75025Z" fill="#D42630"/>
<path d="M8.75 26.7503H16.75V30.7503H8.75V26.7503Z" fill="#D42630"/>
<path d="M22.75 81.7503C22.7558 76.713 24.7595 71.8836 28.3214 68.3217C31.8833 64.7598 36.7127 62.7561 41.75 62.7503H82.75C86.463 62.7503 90.024 61.2753 92.6495 58.6498C95.275 56.0243 96.75 52.4633 96.75 48.7503C96.75 45.0372 95.275 41.4763 92.6495 38.8508C90.024 36.2253 86.463 34.7503 82.75 34.7503H74.75V38.7503H82.75C85.4022 38.7503 87.9457 39.8038 89.8211 41.6792C91.6964 43.5546 92.75 46.0981 92.75 48.7503C92.75 51.4024 91.6964 53.946 89.8211 55.8213C87.9457 57.6967 85.4022 58.7503 82.75 58.7503H41.75C35.65 58.7503 29.7999 61.1735 25.4865 65.4868C21.1732 69.8002 18.75 75.6503 18.75 81.7503C18.75 87.8503 21.1732 93.7004 25.4865 98.0138C29.7999 102.327 35.65 104.75 41.75 104.75H44.75V100.75H41.75C36.7127 100.744 31.8833 98.7408 28.3214 95.1789C24.7595 91.617 22.7558 86.7876 22.75 81.7503Z" fill="#D42630"/>
<path d="M60.75 30.7503C61.0738 30.7503 61.3928 30.6716 61.6795 30.5211C61.9662 30.3706 62.2121 30.1528 62.396 29.8863C63.792 27.8683 70.75 17.5503 70.75 12.7503C70.75 10.0981 69.6964 7.55454 67.8211 5.67918C65.9457 3.80381 63.4022 2.75025 60.75 2.75025C58.0978 2.75025 55.5543 3.80381 53.6789 5.67918C51.8036 7.55454 50.75 10.0981 50.75 12.7503C50.75 17.5503 57.708 27.8683 59.104 29.8863C59.2879 30.1528 59.5338 30.3706 59.8205 30.5211C60.1072 30.6716 60.4262 30.7503 60.75 30.7503ZM60.75 6.75025C62.3413 6.75025 63.8674 7.38239 64.9926 8.50761C66.1179 9.63283 66.75 11.159 66.75 12.7503C66.75 14.9343 63.628 20.6363 60.75 25.1343C57.872 20.6363 54.75 14.9343 54.75 12.7503C54.75 11.159 55.3821 9.63283 56.5074 8.50761C57.6326 7.38239 59.1587 6.75025 60.75 6.75025Z" fill="#D42630"/>
<path d="M60.75 16.7503C62.9591 16.7503 64.75 14.9594 64.75 12.7503C64.75 10.5411 62.9591 8.75025 60.75 8.75025C58.5409 8.75025 56.75 10.5411 56.75 12.7503C56.75 14.9594 58.5409 16.7503 60.75 16.7503Z" fill="#D42630"/>
<path d="M48.75 100.75H52.75V104.75H48.75V100.75Z" fill="#D42630"/>
<path d="M56.75 100.75H60.75V104.75H56.75V100.75Z" fill="#D42630"/>
<path d="M58.75 34.7503H62.75V38.7503H58.75V34.7503Z" fill="#D42630"/>
<path d="M66.75 34.7503H70.75V38.7503H66.75V34.7503Z" fill="#D42630"/>
</svg>
