<svg width="120" height="120" viewBox="0 0 120 120" fill="none" xmlns="http://www.w3.org/2000/svg">
<path d="M14.7291 31.0654H40.6454C41.7268 31.0654 42.6035 30.2786 42.6035 29.3082C42.6035 28.3378 41.7268 27.551 40.6454 27.551H14.7291C13.6477 27.551 12.771 28.3378 12.771 29.3082C12.771 30.2786 13.6477 31.0654 14.7291 31.0654Z" fill="#D42630"/>
<path d="M14.7291 39.9492H60.8769C61.9584 39.9492 62.8351 39.1624 62.8351 38.192C62.8351 37.2216 61.9584 36.4348 60.8769 36.4348H14.7291C13.6477 36.4348 12.771 37.2216 12.771 38.192C12.771 39.1624 13.6477 39.9492 14.7291 39.9492Z" fill="#D42630"/>
<path d="M97.4821 7.41507V6.85136C97.4821 3.07391 94.0574 0.000728902 89.8479 0.000728902C89.7383 0.000728902 21.3592 -0.000911127 21.2326 0.000728902C20.2264 0.0140834 19.5964 0.630266 18.899 1.186C16.7547 2.89444 1.95188 14.6895 0.658199 15.7202C0.239677 16.0536 0 16.532 0 17.0341V73.2376C0 74.2081 0.876728 74.9948 1.95815 74.9948C3.03957 74.9948 3.9163 74.2081 3.9163 73.2376V20.0538H16.7059C20.2251 20.0538 23.0884 17.4846 23.0884 14.3264V3.51508H89.8479C91.898 3.51508 93.5658 5.01172 93.5658 6.85136V7.41624C89.449 7.70933 85.4987 8.92342 82.0409 10.9749C81.1389 11.5102 80.8911 12.6004 81.4874 13.4098C82.084 14.2193 83.2988 14.4419 84.2009 13.9065C87.5613 11.913 91.4768 10.8591 95.5239 10.8591C106.86 10.8591 116.083 19.1354 116.083 29.3085C116.083 39.4816 106.861 47.7579 95.5239 47.7579C84.1876 47.7579 74.9644 39.4816 74.9644 29.3085C74.9644 25.7253 76.1098 22.2515 78.2766 19.2626C78.8664 18.4492 78.6095 17.3607 77.703 16.8316C76.7967 16.3024 75.5835 16.5327 74.9939 17.3464C72.4126 20.9069 71.0484 25.0433 71.0484 29.3088C71.0484 40.8281 80.9822 50.3039 93.566 51.202V113.15C93.566 114.989 91.8982 116.486 89.8482 116.486H7.63469C5.58438 116.486 3.91656 114.989 3.91656 113.149V81.438C3.91656 80.4676 3.03983 79.6808 1.95841 79.6808C0.876989 79.6808 0.000260943 80.4676 0.000260943 81.438V113.149C0.000260943 116.927 3.42519 120 7.63469 120H89.8482C94.0577 120 97.4823 116.927 97.4823 113.15V51.2017C110.066 50.3035 120 40.8278 120 29.3085C120 17.7892 110.066 8.31333 97.4821 7.41507ZM19.1724 14.3266C19.1724 15.5468 18.0661 16.5397 16.7061 16.5397H6.82088L19.1724 5.88468V14.3266Z" fill="#D42630"/>
<path d="M92.4937 22.4714C92.1344 21.6877 91.2924 21.1819 90.3483 21.1819C90.3475 21.1819 90.3465 21.1819 90.3457 21.1819C89.4006 21.1828 88.5588 21.6905 88.2009 22.4754C88.1949 22.4888 88.1889 22.5019 88.1834 22.5152L82.1883 36.6408C81.8035 37.5477 82.3105 38.5629 83.3212 38.9083C84.3316 39.2538 85.4631 38.7984 85.848 37.8917L86.8607 35.5054H93.79L94.7915 37.8868C95.0876 38.5903 95.8324 39.024 96.6241 39.024C96.8536 39.024 97.0875 38.9875 97.3149 38.9104C98.3266 38.5678 98.8375 37.5538 98.4556 36.646L92.5151 22.5197C92.5083 22.5035 92.5012 22.4873 92.4937 22.4714ZM88.3526 31.9911L90.3415 27.3048L92.3125 31.9911H88.3526Z" fill="#D42630"/>
<path d="M103.113 19.5933C102.032 19.5933 101.155 20.38 101.155 21.3504V23.1078H99.1027C98.0213 23.1078 97.1445 23.8946 97.1445 24.865C97.1445 25.8354 98.0213 26.6222 99.1027 26.6222H101.155V28.4642C101.155 29.4346 102.032 30.2213 103.113 30.2213C104.195 30.2213 105.072 29.4346 105.072 28.4642V26.6222H107.03C108.111 26.6222 108.988 25.8354 108.988 24.865C108.988 23.8946 108.111 23.1078 107.03 23.1078H105.072V21.3504C105.072 20.38 104.195 19.5933 103.113 19.5933Z" fill="#D42630"/>
<path d="M14.7291 61.7575H82.7523C83.8338 61.7575 84.7105 60.9708 84.7105 60.0003C84.7105 59.0299 83.8338 58.2432 82.7523 58.2432H14.7291C13.6477 58.2432 12.771 59.0299 12.771 60.0003C12.771 60.9708 13.6477 61.7575 14.7291 61.7575Z" fill="#D42630"/>
<path d="M14.7291 70.4921H82.7523C83.8338 70.4921 84.7105 69.7054 84.7105 68.735C84.7105 67.7645 83.8338 66.9778 82.7523 66.9778H14.7291C13.6477 66.9778 12.771 67.7645 12.771 68.735C12.771 69.7054 13.6477 70.4921 14.7291 70.4921Z" fill="#D42630"/>
<path d="M14.7291 79.227H82.7523C83.8338 79.227 84.7105 78.4402 84.7105 77.4698C84.7105 76.4994 83.8338 75.7126 82.7523 75.7126H14.7291C13.6477 75.7126 12.771 76.4994 12.771 77.4698C12.771 78.4402 13.6477 79.227 14.7291 79.227Z" fill="#D42630"/>
<path d="M14.7291 87.9618H46.5817C47.6631 87.9618 48.5398 87.1751 48.5398 86.2047C48.5398 85.2343 47.6631 84.4475 46.5817 84.4475H14.7291C13.6477 84.4475 12.771 85.2343 12.771 86.2047C12.771 87.1751 13.6477 87.9618 14.7291 87.9618Z" fill="#D42630"/>
</svg>
